<?xml version="1.0" standalone="no"?>
<!DOCTYPE svg PUBLIC "-//W3C//DTD SVG 20010904//EN"
 "http://www.w3.org/TR/2001/REC-SVG-20010904/DTD/svg10.dtd">
<svg version="1.0" xmlns="http://www.w3.org/2000/svg"
 width="200.000000pt" height="200.000000pt" viewBox="0 0 200.000000 200.000000"
 preserveAspectRatio="xMidYMid meet">

<g transform="translate(0.000000,200.000000) scale(0.100000,-0.100000)"
fill="#000000" stroke="none">
<path d="M935 1719 c-275 -27 -514 -225 -607 -504 -20 -60 -23 -89 -22 -205 0
-119 4 -145 28 -217 l27 -83 481 0 482 0 -26 28 c-30 32 -48 64 -48 86 0 27
19 18 34 -16 8 -18 28 -48 44 -67 l29 -34 51 50 c53 50 64 81 37 103 -23 19
-50 8 -47 -20 5 -45 -6 -70 -33 -70 -29 0 -43 37 -27 67 8 14 6 23 -10 41 -21
21 -21 22 -2 22 11 0 25 -5 30 -10 7 -7 21 -7 42 1 26 9 37 8 57 -5 60 -40 35
-107 -69 -187 -16 -12 -102 -15 -512 -19 l-492 -5 36 -54 c198 -297 586 -403
902 -247 295 145 452 468 385 791 -57 274 -322 521 -590 550 -96 11 -110 11
-180 4z m-170 -438 c-5 -26 -4 -28 18 -24 37 7 60 -22 54 -70 -8 -61 -39 -86
-103 -86 -30 1 -54 2 -54 4 0 2 9 47 20 100 11 53 20 99 20 101 0 2 12 4 26 4
23 0 25 -3 19 -29z m311 12 c-2 -10 -8 -34 -11 -53 l-7 -35 24 23 c23 20 68
31 68 15 0 -4 -11 -19 -25 -33 -25 -26 -25 -28 -10 -63 19 -47 19 -47 -10 -47
-18 0 -26 7 -31 25 -7 30 -28 28 -32 -3 -2 -16 -10 -22 -28 -22 -13 0 -24 2
-24 4 0 2 9 48 20 101 11 53 20 99 20 101 0 2 12 4 26 4 19 0 24 -4 20 -17z
m-554 -10 c25 -22 23 -59 -6 -87 -21 -22 -22 -26 -10 -56 18 -42 18 -42 -13
-38 -21 2 -29 10 -37 36 -11 40 -30 37 -34 -6 -3 -26 -8 -32 -28 -32 -29 0
-29 -1 -7 112 l17 88 50 0 c32 0 56 -6 68 -17z m145 -53 c7 -15 10 -36 6 -48
-4 -18 -13 -22 -44 -22 -47 0 -52 -17 -6 -22 49 -5 43 -32 -9 -36 -51 -4 -74
16 -74 64 0 76 98 125 127 64z m294 20 c14 -8 19 -21 19 -50 0 -40 0 -40 -40
-40 -22 0 -40 -4 -40 -10 0 -5 13 -10 29 -10 17 0 33 -5 37 -11 17 -28 -73
-40 -100 -13 -27 26 -20 81 13 115 31 31 51 35 82 19z m321 0 c14 0 18 -5 14
-17 -2 -10 -10 -43 -16 -74 l-11 -57 -54 -1 c-64 0 -81 18 -70 76 9 52 48 87
87 79 17 -3 39 -6 50 -6z"/>
<path d="M763 1212 c-7 -5 -16 -23 -19 -41 -6 -29 -4 -33 12 -29 22 4 43 53
28 68 -5 5 -15 6 -21 2z"/>
<path d="M440 1235 c0 -28 21 -33 40 -10 15 18 5 35 -21 35 -14 0 -19 -7 -19
-25z"/>
<path d="M600 1205 c-10 -13 -9 -15 9 -15 12 0 21 6 21 15 0 8 -4 15 -9 15 -5
0 -14 -7 -21 -15z"/>
<path d="M910 1205 c-10 -13 -9 -15 9 -15 12 0 21 6 21 15 0 8 -4 15 -9 15 -5
0 -14 -7 -21 -15z"/>
<path d="M1205 1196 c-18 -27 -13 -60 8 -54 19 7 33 56 20 69 -8 8 -16 4 -28
-15z"/>
<path d="M1362 810 c0 -14 2 -19 5 -12 2 6 2 18 0 25 -3 6 -5 1 -5 -13z"/>
</g>
</svg>
